<svg id="Layer_1" enable-background="new 0 0 512 512" height="512" viewBox="0 0 512 512" width="512" xmlns="http://www.w3.org/2000/svg"><g><g><g><g id="XMLID_1258_"><g id="XMLID_1259_"><g id="XMLID_1260_"><g id="XMLID_1261_"><g id="XMLID_1262_"><g id="XMLID_1263_"><g id="XMLID_1264_"><g id="XMLID_1265_"><g id="XMLID_1266_"><g id="XMLID_1287_"><g id="XMLID_1303_"><g id="XMLID_1319_"><g id="XMLID_1335_"><g id="XMLID_1351_"><g id="XMLID_1368_"><circle cx="256" cy="256" fill="#ed2f54" r="256"/></g></g></g></g></g></g></g></g></g></g></g></g></g></g></g></g></g><path d="m511.141 276.968-238.062-238.062-102.746 259.094-95.833 97 105.54 105.54c24 7.447 49.511 11.46 75.96 11.46 134.324 0 244.473-103.457 255.141-235.032z" fill="#a5003c"/><g><ellipse cx="256" cy="395.355" fill="#fed940" rx="37.145" ry="37.144" transform="matrix(.154 -.988 .988 .154 -174.054 587.439)"/><g><g><path d="m293.14 395v.36c0 20.51-16.63 37.14-37.14 37.14v-74.29c15.34 0 28.51 9.3 34.17 22.58 1.87 4.37 2.92 9.17 2.97 14.21z" fill="#fdbf2d"/></g></g><g><g><path d="m276.926 98.25h-41.852v-47.279c0-11.557 9.369-20.926 20.926-20.926 11.557 0 20.926 9.369 20.926 20.926z" fill="#fd9827"/></g></g><g><g><path d="m276.93 50.97v47.28h-20.93v-68.21c5.78 0 11.01 2.34 14.8 6.13s6.13 9.02 6.13 14.8z" fill="#fd9827"/></g></g><path d="m424.46 380.79h-336.92c27.92-34.05 47.33-87.18 59.03-134.79 6.74-27.42 28.67-29.778 30.43-48.848.69-7.45-16.08-38.042-14.64-45.152 7.89-39.03 29.63-70.67 93.64-70.67s85.75 31.64 93.64 70.67c1.44 7.11-22.33 37.702-21.64 45.152 1.76 19.07 30.69 21.428 37.43 48.848 11.7 47.61 31.11 100.74 59.03 134.79z" fill="#fed940"/><path d="m424.46 380.79h-168.46v-299.46c7.55 0 14.51.44 20.93 1.29 48.02 6.28 65.75 34.95 72.71 69.38 1.44 7.11-22.33 37.7-21.64 45.15 1.76 19.07 30.69 21.43 37.43 48.85 7.63 31.04 18.53 64.42 32.93 93.33 7.69 15.44 16.38 29.6 26.1 41.46z" fill="#fdbf2d"/><path d="m365.43 246h-218.86c6.74-27.42 10.92-53.01 12.68-72.08.69-7.45 1.67-14.81 3.11-21.92h187.28c1.44 7.11 2.42 14.47 3.11 21.92 1.76 19.07 5.94 44.66 12.68 72.08z" fill="#f5f5f7"/><path d="m365.43 246h-109.43v-94h93.64c1.44 7.11 2.42 14.47 3.11 21.92 1.76 19.07 5.94 44.66 12.68 72.08z" fill="#e0e3ee"/><path d="m437.5 395h-363v-21.337c0-18.96 15.37-34.33 34.33-34.33h294.34c18.96 0 34.33 15.37 34.33 34.33z" fill="#fdbf2d"/><path d="m437.5 373.66v21.34h-181.5v-55.67h147.17c18.96 0 34.33 15.37 34.33 34.33z" fill="#fd9827"/></g></g></svg>